<svg xmlns="http://www.w3.org/2000/svg" xmlns:xlink="http://www.w3.org/1999/xlink" width="1366" height="768" viewBox="0 0 1366 768">
  <defs>
    <clipPath id="clip-Paixus_landing_page_final_user_2">
      <rect width="1366" height="768"/>
    </clipPath>
  </defs>
  <g id="Paixus_landing_page_final_user_2" data-name="Paixus landing page final user – 2" clip-path="url(#clip-Paixus_landing_page_final_user_2)">
    <rect width="1366" height="768" fill="#4848ff"/>
    <g id="Grupo_65" data-name="Grupo 65" transform="translate(648.689 -291.246) rotate(45)">
      <circle id="Elipse_118" data-name="Elipse 118" cx="4" cy="4" r="4" transform="translate(996 242)" fill="#ff533d"/>
      <circle id="Elipse_118-2" data-name="Elipse 118" cx="4" cy="4" r="4" transform="translate(1024 242)" fill="#ff533d"/>
      <circle id="Elipse_118-3" data-name="Elipse 118" cx="4" cy="4" r="4" transform="translate(1052 242)" fill="#ff533d"/>
      <circle id="Elipse_118-4" data-name="Elipse 118" cx="4" cy="4" r="4" transform="translate(1080 242)" fill="#ff533d"/>
      <circle id="Elipse_118-5" data-name="Elipse 118" cx="4" cy="4" r="4" transform="translate(1108 242)" fill="#ff533d"/>
      <circle id="Elipse_118-6" data-name="Elipse 118" cx="4" cy="4" r="4" transform="translate(1136 242)" fill="#ff533d"/>
      <circle id="Elipse_118-7" data-name="Elipse 118" cx="4" cy="4" r="4" transform="translate(1164 242)" fill="#ff533d"/>
      <circle id="Elipse_118-8" data-name="Elipse 118" cx="4" cy="4" r="4" transform="translate(1192 242)" fill="#ff533d"/>
      <circle id="Elipse_118-9" data-name="Elipse 118" cx="4" cy="4" r="4" transform="translate(1220 242)" fill="#ff533d"/>
      <circle id="Elipse_118-10" data-name="Elipse 118" cx="4" cy="4" r="4" transform="translate(1248 242)" fill="#ff533d"/>
      <circle id="Elipse_118-11" data-name="Elipse 118" cx="4" cy="4" r="4" transform="translate(996 270)" fill="#ff533d"/>
      <circle id="Elipse_118-12" data-name="Elipse 118" cx="4" cy="4" r="4" transform="translate(1024 270)" fill="#ff533d"/>
      <circle id="Elipse_118-13" data-name="Elipse 118" cx="4" cy="4" r="4" transform="translate(1052 270)" fill="#ff533d"/>
      <circle id="Elipse_118-14" data-name="Elipse 118" cx="4" cy="4" r="4" transform="translate(1080 270)" fill="#ff533d"/>
      <circle id="Elipse_118-15" data-name="Elipse 118" cx="4" cy="4" r="4" transform="translate(1108 270)" fill="#ff533d"/>
      <circle id="Elipse_118-16" data-name="Elipse 118" cx="4" cy="4" r="4" transform="translate(1136 270)" fill="#ff533d"/>
      <circle id="Elipse_118-17" data-name="Elipse 118" cx="4" cy="4" r="4" transform="translate(1164 270)" fill="#ff533d"/>
      <circle id="Elipse_118-18" data-name="Elipse 118" cx="4" cy="4" r="4" transform="translate(1192 270)" fill="#ff533d"/>
      <circle id="Elipse_118-19" data-name="Elipse 118" cx="4" cy="4" r="4" transform="translate(1220 270)" fill="#ff533d"/>
      <circle id="Elipse_118-20" data-name="Elipse 118" cx="4" cy="4" r="4" transform="translate(1248 270)" fill="#ff533d"/>
      <circle id="Elipse_118-21" data-name="Elipse 118" cx="4" cy="4" r="4" transform="translate(996 298)" fill="#ff533d"/>
      <circle id="Elipse_118-22" data-name="Elipse 118" cx="4" cy="4" r="4" transform="translate(1024 298)" fill="#ff533d"/>
      <circle id="Elipse_118-23" data-name="Elipse 118" cx="4" cy="4" r="4" transform="translate(1052 298)" fill="#ff533d"/>
      <circle id="Elipse_118-24" data-name="Elipse 118" cx="4" cy="4" r="4" transform="translate(1080 298)" fill="#ff533d"/>
      <circle id="Elipse_118-25" data-name="Elipse 118" cx="4" cy="4" r="4" transform="translate(1108 298)" fill="#ff533d"/>
      <circle id="Elipse_118-26" data-name="Elipse 118" cx="4" cy="4" r="4" transform="translate(1136 298)" fill="#ff533d"/>
      <circle id="Elipse_118-27" data-name="Elipse 118" cx="4" cy="4" r="4" transform="translate(1164 298)" fill="#ff533d"/>
      <circle id="Elipse_118-28" data-name="Elipse 118" cx="4" cy="4" r="4" transform="translate(1192 298)" fill="#ff533d"/>
      <circle id="Elipse_118-29" data-name="Elipse 118" cx="4" cy="4" r="4" transform="translate(1220 298)" fill="#ff533d"/>
      <circle id="Elipse_118-30" data-name="Elipse 118" cx="4" cy="4" r="4" transform="translate(1248 298)" fill="#ff533d"/>
      <circle id="Elipse_118-31" data-name="Elipse 118" cx="4" cy="4" r="4" transform="translate(996 326)" fill="#ff533d"/>
      <circle id="Elipse_118-32" data-name="Elipse 118" cx="4" cy="4" r="4" transform="translate(1024 326)" fill="#ff533d"/>
      <circle id="Elipse_118-33" data-name="Elipse 118" cx="4" cy="4" r="4" transform="translate(1052 326)" fill="#ff533d"/>
      <circle id="Elipse_118-34" data-name="Elipse 118" cx="4" cy="4" r="4" transform="translate(1080 326)" fill="#ff533d"/>
      <circle id="Elipse_118-35" data-name="Elipse 118" cx="4" cy="4" r="4" transform="translate(1108 326)" fill="#ff533d"/>
      <circle id="Elipse_118-36" data-name="Elipse 118" cx="4" cy="4" r="4" transform="translate(1136 326)" fill="#ff533d"/>
      <circle id="Elipse_118-37" data-name="Elipse 118" cx="4" cy="4" r="4" transform="translate(1164 326)" fill="#ff533d"/>
      <circle id="Elipse_118-38" data-name="Elipse 118" cx="4" cy="4" r="4" transform="translate(1192 326)" fill="#ff533d"/>
      <circle id="Elipse_118-39" data-name="Elipse 118" cx="4" cy="4" r="4" transform="translate(1220 326)" fill="#ff533d"/>
      <circle id="Elipse_118-40" data-name="Elipse 118" cx="4" cy="4" r="4" transform="translate(1248 326)" fill="#ff533d"/>
      <circle id="Elipse_118-41" data-name="Elipse 118" cx="4" cy="4" r="4" transform="translate(996 354)" fill="#ff533d"/>
      <circle id="Elipse_118-42" data-name="Elipse 118" cx="4" cy="4" r="4" transform="translate(1024 354)" fill="#ff533d"/>
      <circle id="Elipse_118-43" data-name="Elipse 118" cx="4" cy="4" r="4" transform="translate(1052 354)" fill="#ff533d"/>
      <circle id="Elipse_118-44" data-name="Elipse 118" cx="4" cy="4" r="4" transform="translate(1080 354)" fill="#ff533d"/>
      <circle id="Elipse_118-45" data-name="Elipse 118" cx="4" cy="4" r="4" transform="translate(1108 354)" fill="#ff533d"/>
      <circle id="Elipse_118-46" data-name="Elipse 118" cx="4" cy="4" r="4" transform="translate(1136 354)" fill="#ff533d"/>
      <circle id="Elipse_118-47" data-name="Elipse 118" cx="4" cy="4" r="4" transform="translate(1164 354)" fill="#ff533d"/>
      <circle id="Elipse_118-48" data-name="Elipse 118" cx="4" cy="4" r="4" transform="translate(1192 354)" fill="#ff533d"/>
      <circle id="Elipse_118-49" data-name="Elipse 118" cx="4" cy="4" r="4" transform="translate(1220 354)" fill="#ff533d"/>
      <circle id="Elipse_118-50" data-name="Elipse 118" cx="4" cy="4" r="4" transform="translate(1248 354)" fill="#ff533d"/>
      <circle id="Elipse_118-51" data-name="Elipse 118" cx="4" cy="4" r="4" transform="translate(996 382)" fill="#ff533d"/>
      <circle id="Elipse_118-52" data-name="Elipse 118" cx="4" cy="4" r="4" transform="translate(1024 382)" fill="#ff533d"/>
      <circle id="Elipse_118-53" data-name="Elipse 118" cx="4" cy="4" r="4" transform="translate(1052 382)" fill="#ff533d"/>
      <circle id="Elipse_118-54" data-name="Elipse 118" cx="4" cy="4" r="4" transform="translate(1080 382)" fill="#ff533d"/>
      <circle id="Elipse_118-55" data-name="Elipse 118" cx="4" cy="4" r="4" transform="translate(1108 382)" fill="#ff533d"/>
      <circle id="Elipse_118-56" data-name="Elipse 118" cx="4" cy="4" r="4" transform="translate(1136 382)" fill="#ff533d"/>
      <circle id="Elipse_118-57" data-name="Elipse 118" cx="4" cy="4" r="4" transform="translate(1164 382)" fill="#ff533d"/>
      <circle id="Elipse_118-58" data-name="Elipse 118" cx="4" cy="4" r="4" transform="translate(1192 382)" fill="#ff533d"/>
      <circle id="Elipse_118-59" data-name="Elipse 118" cx="4" cy="4" r="4" transform="translate(1220 382)" fill="#ff533d"/>
      <circle id="Elipse_118-60" data-name="Elipse 118" cx="4" cy="4" r="4" transform="translate(1248 382)" fill="#ff533d"/>
      <circle id="Elipse_118-61" data-name="Elipse 118" cx="4" cy="4" r="4" transform="translate(996 410)" fill="#ff533d"/>
      <circle id="Elipse_118-62" data-name="Elipse 118" cx="4" cy="4" r="4" transform="translate(1024 410)" fill="#ff533d"/>
      <circle id="Elipse_118-63" data-name="Elipse 118" cx="4" cy="4" r="4" transform="translate(1052 410)" fill="#ff533d"/>
      <circle id="Elipse_118-64" data-name="Elipse 118" cx="4" cy="4" r="4" transform="translate(1080 410)" fill="#ff533d"/>
      <circle id="Elipse_118-65" data-name="Elipse 118" cx="4" cy="4" r="4" transform="translate(1108 410)" fill="#ff533d"/>
      <circle id="Elipse_118-66" data-name="Elipse 118" cx="4" cy="4" r="4" transform="translate(1136 410)" fill="#ff533d"/>
      <circle id="Elipse_118-67" data-name="Elipse 118" cx="4" cy="4" r="4" transform="translate(1164 410)" fill="#ff533d"/>
      <circle id="Elipse_118-68" data-name="Elipse 118" cx="4" cy="4" r="4" transform="translate(1192 410)" fill="#ff533d"/>
      <circle id="Elipse_118-69" data-name="Elipse 118" cx="4" cy="4" r="4" transform="translate(1220 410)" fill="#ff533d"/>
      <circle id="Elipse_118-70" data-name="Elipse 118" cx="4" cy="4" r="4" transform="translate(1248 410)" fill="#ff533d"/>
      <circle id="Elipse_118-71" data-name="Elipse 118" cx="4" cy="4" r="4" transform="translate(996 438)" fill="#ff533d"/>
      <circle id="Elipse_118-72" data-name="Elipse 118" cx="4" cy="4" r="4" transform="translate(1024 438)" fill="#ff533d"/>
      <circle id="Elipse_118-73" data-name="Elipse 118" cx="4" cy="4" r="4" transform="translate(1052 438)" fill="#ff533d"/>
      <circle id="Elipse_118-74" data-name="Elipse 118" cx="4" cy="4" r="4" transform="translate(1080 438)" fill="#ff533d"/>
      <circle id="Elipse_118-75" data-name="Elipse 118" cx="4" cy="4" r="4" transform="translate(1108 438)" fill="#ff533d"/>
      <circle id="Elipse_118-76" data-name="Elipse 118" cx="4" cy="4" r="4" transform="translate(1136 438)" fill="#ff533d"/>
      <circle id="Elipse_118-77" data-name="Elipse 118" cx="4" cy="4" r="4" transform="translate(1164 438)" fill="#ff533d"/>
      <circle id="Elipse_118-78" data-name="Elipse 118" cx="4" cy="4" r="4" transform="translate(1192 438)" fill="#ff533d"/>
      <circle id="Elipse_118-79" data-name="Elipse 118" cx="4" cy="4" r="4" transform="translate(1220 438)" fill="#ff533d"/>
      <circle id="Elipse_118-80" data-name="Elipse 118" cx="4" cy="4" r="4" transform="translate(1248 438)" fill="#ff533d"/>
      <circle id="Elipse_118-81" data-name="Elipse 118" cx="4" cy="4" r="4" transform="translate(996 466)" fill="#ff533d"/>
      <circle id="Elipse_118-82" data-name="Elipse 118" cx="4" cy="4" r="4" transform="translate(1024 466)" fill="#ff533d"/>
      <circle id="Elipse_118-83" data-name="Elipse 118" cx="4" cy="4" r="4" transform="translate(1052 466)" fill="#ff533d"/>
      <circle id="Elipse_118-84" data-name="Elipse 118" cx="4" cy="4" r="4" transform="translate(1080 466)" fill="#ff533d"/>
      <circle id="Elipse_118-85" data-name="Elipse 118" cx="4" cy="4" r="4" transform="translate(1108 466)" fill="#ff533d"/>
      <circle id="Elipse_118-86" data-name="Elipse 118" cx="4" cy="4" r="4" transform="translate(1136 466)" fill="#ff533d"/>
      <circle id="Elipse_118-87" data-name="Elipse 118" cx="4" cy="4" r="4" transform="translate(1164 466)" fill="#ff533d"/>
      <circle id="Elipse_118-88" data-name="Elipse 118" cx="4" cy="4" r="4" transform="translate(1192 466)" fill="#ff533d"/>
      <circle id="Elipse_118-89" data-name="Elipse 118" cx="4" cy="4" r="4" transform="translate(1220 466)" fill="#ff533d"/>
      <circle id="Elipse_118-90" data-name="Elipse 118" cx="4" cy="4" r="4" transform="translate(1248 466)" fill="#ff533d"/>
      <circle id="Elipse_118-91" data-name="Elipse 118" cx="4" cy="4" r="4" transform="translate(996 494)" fill="#ff533d"/>
      <circle id="Elipse_118-92" data-name="Elipse 118" cx="4" cy="4" r="4" transform="translate(1024 494)" fill="#ff533d"/>
      <circle id="Elipse_118-93" data-name="Elipse 118" cx="4" cy="4" r="4" transform="translate(1052 494)" fill="#ff533d"/>
      <circle id="Elipse_118-94" data-name="Elipse 118" cx="4" cy="4" r="4" transform="translate(1080 494)" fill="#ff533d"/>
      <circle id="Elipse_118-95" data-name="Elipse 118" cx="4" cy="4" r="4" transform="translate(1108 494)" fill="#ff533d"/>
      <circle id="Elipse_118-96" data-name="Elipse 118" cx="4" cy="4" r="4" transform="translate(1136 494)" fill="#ff533d"/>
      <circle id="Elipse_118-97" data-name="Elipse 118" cx="4" cy="4" r="4" transform="translate(1164 494)" fill="#ff533d"/>
      <circle id="Elipse_118-98" data-name="Elipse 118" cx="4" cy="4" r="4" transform="translate(1192 494)" fill="#ff533d"/>
      <circle id="Elipse_118-99" data-name="Elipse 118" cx="4" cy="4" r="4" transform="translate(1220 494)" fill="#ff533d"/>
      <circle id="Elipse_118-100" data-name="Elipse 118" cx="4" cy="4" r="4" transform="translate(1248 494)" fill="#ff533d"/>
    </g>
  </g>
</svg>
