<svg id="Download_on_the_App_Store_Badge_ESMX_RGB_blk_100217" xmlns="http://www.w3.org/2000/svg" width="71.639" height="23.947" viewBox="0 0 71.639 23.947">
  <g id="Grupo_52" data-name="Grupo 52" transform="translate(0 0)">
    <g id="Grupo_50" data-name="Grupo 50">
      <path id="Trazado_72" data-name="Trazado 72" d="M65.934,0H5.053c-.183,0-.365,0-.55.008A7.911,7.911,0,0,0,3.3.115,3.99,3.99,0,0,0,2.165.49,3.854,3.854,0,0,0,1.2,1.2a3.747,3.747,0,0,0-.705.97A3.952,3.952,0,0,0,.116,3.305,7.779,7.779,0,0,0,.009,4.5C0,4.688,0,4.872,0,5.055V18.893c0,.186,0,.366.009.552a7.778,7.778,0,0,0,.107,1.2,3.944,3.944,0,0,0,.374,1.14,3.716,3.716,0,0,0,.705.966,3.756,3.756,0,0,0,.969.706,4.011,4.011,0,0,0,1.138.378,8.055,8.055,0,0,0,1.2.106c.185,0,.367.006.55.006h61.53c.182,0,.369,0,.552-.006a7.95,7.95,0,0,0,1.2-.106,4.073,4.073,0,0,0,1.142-.378,3.758,3.758,0,0,0,.968-.706,3.829,3.829,0,0,0,.707-.966,3.954,3.954,0,0,0,.371-1.14,8.086,8.086,0,0,0,.111-1.2c0-.186,0-.366,0-.552,0-.217,0-.434,0-.655V5.709c0-.219,0-.437,0-.654,0-.184,0-.368,0-.551a8.086,8.086,0,0,0-.111-1.2,3.961,3.961,0,0,0-.371-1.139A3.871,3.871,0,0,0,69.475.49,4.052,4.052,0,0,0,68.332.114a7.809,7.809,0,0,0-1.2-.106c-.182,0-.37-.006-.552-.008h-.649Z" transform="translate(0 0)" fill="#a6a6a6"/>
      <path id="Trazado_73" data-name="Trazado 73" d="M5.406,23.774c-.182,0-.36,0-.541-.006a7.6,7.6,0,0,1-1.119-.1,3.522,3.522,0,0,1-.992-.328,3.236,3.236,0,0,1-.836-.609,3.185,3.185,0,0,1-.611-.836,3.425,3.425,0,0,1-.325-.992,7.431,7.431,0,0,1-.1-1.122c0-.126-.009-.547-.009-.547V5.407s.005-.414.009-.536a7.406,7.406,0,0,1,.1-1.121,3.446,3.446,0,0,1,.325-1,3.217,3.217,0,0,1,.608-.837,3.332,3.332,0,0,1,.84-.612,3.486,3.486,0,0,1,.99-.326,7.535,7.535,0,0,1,1.123-.1l.54-.007H66.93l.547.008a7.415,7.415,0,0,1,1.113.1,3.555,3.555,0,0,1,1,.328,3.349,3.349,0,0,1,1.446,1.449,3.45,3.45,0,0,1,.32.987,7.778,7.778,0,0,1,.1,1.13c0,.17,0,.352,0,.533,0,.224,0,.438,0,.654V18.589c0,.217,0,.43,0,.644,0,.195,0,.373,0,.557a7.623,7.623,0,0,1-.1,1.11,3.435,3.435,0,0,1-.323,1,3.281,3.281,0,0,1-.608.83,3.24,3.24,0,0,1-.838.612,3.509,3.509,0,0,1-1,.329,7.509,7.509,0,0,1-1.119.1c-.175,0-.359.006-.537.006H5.406Z" transform="translate(-0.35 -0.351)"/>
    </g>
    <g id="_Group_" data-name="&lt;Group&gt;" transform="translate(5.97 5.221)">
      <g id="_Group_2" data-name="&lt;Group&gt;">
        <g id="_Group_3" data-name="&lt;Group&gt;">
          <path id="_Path_" data-name="&lt;Path&gt;" d="M18.83,17.761a2.963,2.963,0,0,1,1.411-2.486,3.033,3.033,0,0,0-2.389-1.292c-1.005-.106-1.98.6-2.492.6s-1.311-.591-2.16-.574a3.182,3.182,0,0,0-2.678,1.633c-1.158,2-.294,4.951.815,6.571.555.793,1.2,1.68,2.052,1.648.83-.034,1.141-.53,2.143-.53s1.284.53,2.15.51c.891-.014,1.452-.8,1.988-1.6a6.563,6.563,0,0,0,.909-1.851,2.863,2.863,0,0,1-1.748-2.634Z" transform="translate(-9.972 -10.828)" fill="#fff"/>
          <path id="_Path_2" data-name="&lt;Path&gt;" d="M20.734,10.81A2.917,2.917,0,0,0,21.4,8.72a2.968,2.968,0,0,0-1.92.994,2.776,2.776,0,0,0-.685,2.012,2.454,2.454,0,0,0,1.938-.916Z" transform="translate(-13.511 -8.72)" fill="#fff"/>
        </g>
      </g>
      <g id="Grupo_51" data-name="Grupo 51" transform="translate(14.641 5.478)">
        <path id="Trazado_74" data-name="Trazado 74" d="M39.142,23.5H36.308l-.681,2.009h-1.2l2.684-7.434h1.247l2.684,7.434H39.822Zm-2.54-.927h2.246L37.74,19.315h-.031Z" transform="translate(-34.427 -17.954)" fill="#fff"/>
        <path id="Trazado_75" data-name="Trazado 75" d="M51.737,24.114c0,1.684-.9,2.766-2.262,2.766a1.837,1.837,0,0,1-1.705-.948h-.026v2.685H46.631V21.4h1.077v.9h.02a1.923,1.923,0,0,1,1.726-.958C50.83,21.347,51.737,22.434,51.737,24.114Zm-1.144,0c0-1.1-.567-1.819-1.432-1.819-.85,0-1.422.737-1.422,1.819s.572,1.823,1.422,1.823c.865,0,1.432-.716,1.432-1.823Z" transform="translate(-39.325 -19.266)" fill="#fff"/>
        <path id="Trazado_76" data-name="Trazado 76" d="M61.7,24.114c0,1.684-.9,2.766-2.262,2.766a1.837,1.837,0,0,1-1.705-.948h-.026v2.685H56.6V21.4h1.077v.9h.02a1.923,1.923,0,0,1,1.726-.958C60.8,21.347,61.7,22.434,61.7,24.114Zm-1.144,0c0-1.1-.567-1.819-1.432-1.819-.85,0-1.422.737-1.422,1.819s.572,1.823,1.422,1.823c.865,0,1.432-.716,1.432-1.823Z" transform="translate(-43.324 -19.266)" fill="#fff"/>
        <path id="Trazado_77" data-name="Trazado 77" d="M70.947,23.358c.082.737.8,1.221,1.777,1.221.938,0,1.612-.484,1.612-1.149,0-.577-.407-.923-1.37-1.159L72,22.039c-1.365-.33-2-.968-2-2,0-1.283,1.118-2.164,2.705-2.164,1.571,0,2.648.881,2.684,2.164H74.27c-.067-.742-.681-1.19-1.577-1.19s-1.51.453-1.51,1.113c0,.526.392.835,1.35,1.072l.819.2c1.525.361,2.159.973,2.159,2.061,0,1.391-1.108,2.262-2.87,2.262-1.649,0-2.762-.851-2.834-2.2Z" transform="translate(-48.627 -17.871)" fill="#fff"/>
        <path id="Trazado_78" data-name="Trazado 78" d="M82.069,19.3v1.283H83.1v.881H82.069v2.988c0,.464.206.681.659.681a3.477,3.477,0,0,0,.366-.026v.876a3.055,3.055,0,0,1-.618.051c-1.1,0-1.525-.412-1.525-1.463V21.464h-.788v-.881h.788V19.3Z" transform="translate(-52.782 -18.444)" fill="#fff"/>
        <path id="Trazado_79" data-name="Trazado 79" d="M86.065,24.108a2.579,2.579,0,1,1,5.142,0,2.579,2.579,0,1,1-5.142,0Zm4.008,0c0-1.17-.536-1.86-1.438-1.86s-1.437.7-1.437,1.86.536,1.86,1.437,1.86,1.438-.685,1.438-1.86Z" transform="translate(-55.151 -19.26)" fill="#fff"/>
        <path id="Trazado_80" data-name="Trazado 80" d="M96.186,21.4h1.061v.923h.026a1.293,1.293,0,0,1,1.3-.979,1.716,1.716,0,0,1,.381.042v1.041a1.555,1.555,0,0,0-.5-.067A1.121,1.121,0,0,0,97.3,23.609v3.215H96.186Z" transform="translate(-59.213 -19.266)" fill="#fff"/>
        <path id="Trazado_81" data-name="Trazado 81" d="M106.106,25.226a2.175,2.175,0,0,1-2.334,1.659,2.467,2.467,0,0,1-2.555-2.751,2.5,2.5,0,0,1,2.509-2.8A2.386,2.386,0,0,1,106.168,24v.381H102.34v.067a1.412,1.412,0,0,0,1.458,1.535,1.226,1.226,0,0,0,1.252-.762Zm-3.761-1.618h2.71a1.3,1.3,0,0,0-1.329-1.376,1.372,1.372,0,0,0-1.38,1.376Z" transform="translate(-61.232 -19.26)" fill="#fff"/>
      </g>
    </g>
  </g>
  <g id="_Group_4" data-name="&lt;Group&gt;" transform="translate(21.355 4.801)">
    <g id="Grupo_53" data-name="Grupo 53">
      <path id="Trazado_82" data-name="Trazado 82" d="M36.961,8.728A1.58,1.58,0,0,1,38.642,10.5a1.588,1.588,0,0,1-1.681,1.8h-1.29V8.728ZM36.226,11.8H36.9a1.123,1.123,0,0,0,1.178-1.285A1.126,1.126,0,0,0,36.9,9.233h-.674Z" transform="translate(-35.671 -8.302)" fill="#fff"/>
      <path id="Trazado_83" data-name="Trazado 83" d="M44.086,12.128a1.094,1.094,0,0,1-1.168.78,1.224,1.224,0,0,1-1.245-1.391,1.243,1.243,0,0,1,1.243-1.408c.75,0,1.2.512,1.2,1.359v.186h-1.9v.03a.713.713,0,0,0,.718.772.646.646,0,0,0,.641-.327Zm-1.871-.869h1.362a.65.65,0,0,0-.664-.7.689.689,0,0,0-.7.7Z" transform="translate(-38.075 -8.858)" fill="#fff"/>
      <path id="Trazado_84" data-name="Trazado 84" d="M47.856,10.108c.606,0,1,.282,1.055.757H48.4c-.049-.2-.243-.324-.544-.324s-.523.141-.523.351c0,.161.136.263.429.329l.448.1c.513.119.753.339.753.735,0,.507-.473.847-1.117.847s-1.059-.29-1.107-.767h.533a.547.547,0,0,0,.586.336c.331,0,.567-.148.567-.364,0-.161-.126-.265-.4-.329l-.47-.109c-.513-.121-.75-.351-.75-.752C46.809,10.444,47.247,10.108,47.856,10.108Z" transform="translate(-40.113 -8.858)" fill="#fff"/>
      <path id="Trazado_85" data-name="Trazado 85" d="M53.318,11.038a.6.6,0,0,0-.637-.458c-.445,0-.718.341-.718.916s.275.933.718.933a.586.586,0,0,0,.637-.443h.517a1.055,1.055,0,0,1-1.151.918A1.238,1.238,0,0,1,51.419,11.5,1.229,1.229,0,0,1,52.681,10.1a1.064,1.064,0,0,1,1.154.933Z" transform="translate(-41.986 -8.855)" fill="#fff"/>
      <path id="Trazado_86" data-name="Trazado 86" d="M56.345,11.255c0-.485.361-.765,1-.8l.73-.042v-.233c0-.285-.188-.445-.552-.445-.3,0-.5.109-.562.3h-.515c.054-.463.49-.76,1.1-.76.676,0,1.057.336,1.057.906v1.842H58.1v-.379h-.042a.907.907,0,0,1-.81.423.814.814,0,0,1-.9-.807Zm1.733-.23V10.8l-.658.042c-.371.025-.54.151-.54.389s.21.384.5.384a.635.635,0,0,0,.7-.589Zm-.847-2.154.621-.852h.624l-.7.852Z" transform="translate(-43.968 -8.02)" fill="#fff"/>
      <path id="Trazado_87" data-name="Trazado 87" d="M61.516,10.164h.512v.413h.04a.731.731,0,0,1,.728-.458,1.119,1.119,0,0,1,.237.022v.525a1.457,1.457,0,0,0-.3-.032.632.632,0,0,0-.688.634v1.592h-.532Z" transform="translate(-46.043 -8.861)" fill="#fff"/>
      <path id="Trazado_88" data-name="Trazado 88" d="M64.795,13.13h.545c.045.2.27.322.629.322.443,0,.706-.21.706-.567v-.517h-.04a.907.907,0,0,1-.832.453c-.688,0-1.114-.532-1.114-1.339s.431-1.362,1.119-1.362a.934.934,0,0,1,.847.475H66.7v-.431h.51v2.718c0,.616-.483,1.008-1.245,1.008C65.287,13.89,64.852,13.588,64.795,13.13Zm1.889-1.651c0-.537-.278-.881-.731-.881s-.715.344-.715.881.257.881.715.881.731-.341.731-.881Z" transform="translate(-47.317 -8.862)" fill="#fff"/>
      <path id="Trazado_89" data-name="Trazado 89" d="M70.053,12.093c0-.485.361-.765,1-.8l.73-.042v-.233c0-.285-.188-.445-.552-.445-.3,0-.5.109-.562.3h-.515c.054-.463.49-.76,1.1-.76.676,0,1.057.336,1.057.906v1.842H71.8v-.379h-.042a.907.907,0,0,1-.81.423.814.814,0,0,1-.9-.807Zm1.733-.23v-.225l-.658.042c-.371.025-.54.151-.54.389s.21.384.5.384a.635.635,0,0,0,.7-.589Z" transform="translate(-49.47 -8.858)" fill="#fff"/>
      <path id="Trazado_90" data-name="Trazado 90" d="M75.265,8.437H75.8v3.748h-.532Z" transform="translate(-51.561 -8.187)" fill="#fff"/>
      <path id="Trazado_91" data-name="Trazado 91" d="M77.385,11.507a1.277,1.277,0,1,1,2.543,0,1.277,1.277,0,1,1-2.543,0Zm2,0c0-.584-.263-.926-.723-.926s-.723.342-.723.926.26.928.723.928S79.381,12.093,79.381,11.507Z" transform="translate(-52.41 -8.858)" fill="#fff"/>
      <path id="Trazado_92" data-name="Trazado 92" d="M87.454,12.128a1.094,1.094,0,0,1-1.168.78,1.224,1.224,0,0,1-1.245-1.391,1.243,1.243,0,0,1,1.243-1.408c.75,0,1.2.512,1.2,1.359v.186h-1.9v.03a.713.713,0,0,0,.718.772.646.646,0,0,0,.641-.327Zm-1.871-.869h1.362a.65.65,0,0,0-.664-.7.689.689,0,0,0-.7.7Z" transform="translate(-55.48 -8.858)" fill="#fff"/>
      <path id="Trazado_93" data-name="Trazado 93" d="M90.327,10.158h.512v.428h.04a.807.807,0,0,1,.8-.48.877.877,0,0,1,.933,1v1.745h-.532V11.242c0-.433-.188-.649-.582-.649a.618.618,0,0,0-.644.683v1.577h-.532Z" transform="translate(-57.606 -8.856)" fill="#fff"/>
      <path id="Trazado_94" data-name="Trazado 94" d="M100.15,12.128a1.094,1.094,0,0,1-1.168.78,1.224,1.224,0,0,1-1.245-1.391,1.243,1.243,0,0,1,1.243-1.408c.75,0,1.2.512,1.2,1.359v.186h-1.9v.03a.713.713,0,0,0,.718.772.646.646,0,0,0,.641-.327Zm-1.871-.869h1.362a.65.65,0,0,0-.664-.7.689.689,0,0,0-.7.7Z" transform="translate(-60.576 -8.858)" fill="#fff"/>
      <path id="Trazado_95" data-name="Trazado 95" d="M103.064,8.437h.532v3.748h-.532Z" transform="translate(-62.718 -8.187)" fill="#fff"/>
    </g>
  </g>
</svg>
