<svg id="Componente_1_1" data-name="Componente 1 – 1" xmlns="http://www.w3.org/2000/svg" width="2085.497" height="672.299" viewBox="0 0 2085.497 672.299">
  <g id="Grupo_20" data-name="Grupo 20" transform="translate(-325.711 -326.472)">
    <g id="Grupo_19" data-name="Grupo 19">
      <path id="Trazado_28" data-name="Trazado 28" d="M1267.483,669.044c0,77.548-54.436,130.96-119.662,130.96-26.709,0-49.816-9.244-66.251-27.733V900.153h-64.2V540.647H1067.7l7.19,24.652h7.708c15.918-17.462,37.489-27.221,65.222-27.221C1213.047,538.078,1267.483,591.49,1267.483,669.044Zm-66.763,0c0-45.2-31.328-67.795-62.656-67.795-33.381,0-56.494,25.166-56.494,67.795s23.113,67.792,56.494,67.792C1169.392,736.836,1200.72,714.235,1200.72,669.044Z" fill="#151b44"/>
      <path id="Trazado_29" data-name="Trazado 29" d="M1534.545,540.647V797.438h-50.328l-7.191-24.655h-7.7C1453.4,790.248,1431.83,800,1404.1,800c-65.221,0-119.662-53.412-119.662-130.96s54.441-130.966,119.662-130.966c26.709,0,49.816,9.245,66.256,27.733V540.647Zm-64.192,128.4c0-42.629-23.118-67.795-56.5-67.795-31.322,0-62.655,22.6-62.655,67.795s31.333,67.792,62.655,67.792C1447.235,736.836,1470.353,711.669,1470.353,669.044Z" fill="#151b44"/>
      <path id="Trazado_30" data-name="Trazado 30" d="M1568.963,468.744c0-24.652,20.03-43.655,44.168-43.655a43.183,43.183,0,0,1,43.143,43.655c0,23.111-19.513,43.141-43.143,43.141C1588.993,511.885,1568.963,491.855,1568.963,468.744ZM1646,797.438h-65.739V540.647H1646Z" fill="#151b44"/>
      <path id="Trazado_31" data-name="Trazado 31" d="M2311.57,592.519c-21.571,0-30.815,10.783-30.815,21.569,0,17.462,23.113,22.6,38.518,25.679,45.714,9.759,91.935,23.628,91.935,78.063,0,52.9-43.655,82.174-96.554,82.174-59.061,0-104.769-35.947-107.853-90.388h63.168c1.541,15.4,11.815,35.435,43.143,35.435,26.191,0,32.357-13.864,32.357-24.649,0-19.006-17.976-24.655-35.44-28.763-30.3-6.678-95.525-19-95.525-77.551,0-50.331,48.28-76.01,98.1-76.01,57.519,0,95.525,34.923,98.608,78.064h-63.173C2345.981,607.412,2337.767,592.519,2311.57,592.519Z" fill="#151b44"/>
      <path id="Trazado_32" data-name="Trazado 32" d="M2109.169,540.647V661.338c0,67.278-36.977,79.093-59.578,79.093-44.167,0-46.733-44.167-46.733-76.012V540.647H1855.452l-49.3,77.036h-6.166l-49.817-77.036H1677.76l79.6,124.8-84.744,131.99h73.958l52.9-86.8h7.191l52.382,86.8h73.959l-84.745-131.99,49.045-76.888h35.7v91.269c0,71.9,34.929,120.175,103.232,120.175,42.114,0,64.716-18.489,74.983-31.328h6.679l9.245,28.762H2178.5V540.647Z" fill="#151b44"/>
    </g>
  </g>
  <g id="Grupo_21" data-name="Grupo 21" transform="translate(-325.711 -326.472)">
    <path id="Trazado_33" data-name="Trazado 33" d="M325.711,326.472V719.654c0,154.152,124.965,279.117,279.117,279.117S883.944,873.806,883.944,719.654V326.472Z" fill="#2abbff"/>
    <path id="Trazado_34" data-name="Trazado 34" d="M604.828,833.72V719.654a114.065,114.065,0,0,0,0-228.131H490.762V719.654A114.066,114.066,0,0,0,604.828,833.72" fill="#fff"/>
  </g>
</svg>
