<svg xmlns="http://www.w3.org/2000/svg" width="166.804" height="51.814" viewBox="0 0 166.804 51.814">
  <g id="Grupo_6" data-name="Grupo 6" transform="translate(-325.711 -326.472)">
    <g id="Grupo_4" data-name="Grupo 4" transform="translate(379.017 334.072)">
      <g id="Grupo_2" data-name="Grupo 2" transform="translate(108.307 8.906)">
        <g id="Grupo_1" data-name="Grupo 1">
          <path id="Trazado_1" data-name="Trazado 1" d="M2422.684,543.242a2.6,2.6,0,1,1,2.6,2.6A2.6,2.6,0,0,1,2422.684,543.242Zm4.818,0a2.223,2.223,0,1,0-2.223,2.237A2.229,2.229,0,0,0,2427.5,543.242Zm-2.3.351h-.131v.965h-.651v-2.632h.892c.6,0,.973.314.973.826a.742.742,0,0,1-.439.717l.614,1.089h-.717Zm.1-.607c.212,0,.307-.058.307-.219s-.088-.234-.314-.234h-.219v.453Z" transform="translate(-2422.684 -540.647)" fill="#151b44"/>
        </g>
      </g>
      <g id="Grupo_3" data-name="Grupo 3" transform="translate(0 0)">
        <path id="Trazado_2" data-name="Trazado 2" d="M1036.649,548.172c0,5.977-4.2,10.093-9.222,10.093a6.6,6.6,0,0,1-5.106-2.137v9.856h-4.948V538.276h3.879l.554,1.9h.594a6.5,6.5,0,0,1,5.027-2.1C1032.453,538.078,1036.649,542.194,1036.649,548.172Zm-5.145,0c0-3.483-2.415-5.225-4.829-5.225-2.573,0-4.354,1.94-4.354,5.225s1.781,5.225,4.354,5.225C1029.089,553.4,1031.5,551.654,1031.5,548.172Z" transform="translate(-1017.373 -529.37)" fill="#151b44"/>
        <path id="Trazado_3" data-name="Trazado 3" d="M1303.711,538.276v19.791h-3.879l-.554-1.9h-.594a6.5,6.5,0,0,1-5.027,2.1c-5.026,0-9.222-4.116-9.222-10.093s4.2-10.094,9.222-10.094a6.606,6.606,0,0,1,5.106,2.137v-1.939Zm-4.947,9.9c0-3.285-1.782-5.225-4.354-5.225-2.414,0-4.829,1.742-4.829,5.225s2.415,5.225,4.829,5.225C1296.982,553.4,1298.764,551.457,1298.764,548.172Z" transform="translate(-1263.853 -529.37)" fill="#151b44"/>
        <path id="Trazado_4" data-name="Trazado 4" d="M1568.963,428.453a3.37,3.37,0,0,1,3.4-3.364,3.328,3.328,0,0,1,3.325,3.364,3.371,3.371,0,0,1-3.325,3.325A3.414,3.414,0,0,1,1568.963,428.453Zm5.937,25.332h-5.067V433.995h5.067Z" transform="translate(-1526.452 -425.089)" fill="#151b44"/>
        <path id="Trazado_5" data-name="Trazado 5" d="M2214.875,542.274c-1.663,0-2.375.831-2.375,1.662,0,1.346,1.781,1.742,2.969,1.979,3.523.752,7.085,1.821,7.085,6.016,0,4.077-3.365,6.333-7.442,6.333-4.552,0-8.074-2.77-8.312-6.966h4.868a2.986,2.986,0,0,0,3.325,2.731c2.019,0,2.494-1.068,2.494-1.9,0-1.465-1.385-1.9-2.731-2.217-2.335-.515-7.362-1.464-7.362-5.977,0-3.879,3.721-5.858,7.56-5.858,4.433,0,7.362,2.692,7.6,6.016h-4.869C2217.527,543.422,2216.895,542.274,2214.875,542.274Z" transform="translate(-2115.132 -529.37)" fill="#151b44"/>
        <path id="Trazado_6" data-name="Trazado 6" d="M1706.263,540.647v9.3c0,5.185-2.85,6.1-4.592,6.1-3.4,0-3.6-3.4-3.6-5.858v-9.539h-11.36l-3.8,5.937h-.475l-3.839-5.937h-5.581l6.135,9.618-6.531,10.172h5.7l4.077-6.69h.554l4.037,6.69h5.7l-6.531-10.172,3.78-5.926h2.751v7.034c0,5.541,2.692,9.262,7.956,9.262a7.059,7.059,0,0,0,5.779-2.414h.515l.712,2.217h3.958V540.647Z" transform="translate(-1622.119 -531.741)" fill="#151b44"/>
      </g>
    </g>
    <g id="Grupo_5" data-name="Grupo 5" transform="translate(325.711 326.472)">
      <path id="Trazado_7" data-name="Trazado 7" d="M325.711,326.472v30.3a21.511,21.511,0,1,0,43.023,0v-30.3Z" transform="translate(-325.711 -326.472)" fill="#2abbff"/>
      <path id="Trazado_8" data-name="Trazado 8" d="M499.553,517.9V509.1a8.791,8.791,0,0,0,0-17.582h-8.791V509.1a8.791,8.791,0,0,0,8.791,8.791" transform="translate(-478.042 -478.803)" fill="#fff"/>
    </g>
  </g>
</svg>
