<svg xmlns="http://www.w3.org/2000/svg" width="2085.497" height="672.299" viewBox="0 0 2085.497 672.299">
  <g id="Grupo_16" data-name="Grupo 16" transform="translate(-3120.026 -326.472)">
    <g id="Grupo_14" data-name="Grupo 14">
      <g id="Grupo_13" data-name="Grupo 13">
        <path id="Trazado_20" data-name="Trazado 20" d="M4061.8,669.044c0,77.548-54.435,130.96-119.662,130.96-26.708,0-49.816-9.244-66.251-27.733V900.153h-64.2V540.647h50.328l7.191,24.652h7.708c15.917-17.462,37.489-27.221,65.221-27.221C4007.362,538.078,4061.8,591.49,4061.8,669.044Zm-66.763,0c0-45.2-31.327-67.795-62.655-67.795-33.382,0-56.495,25.166-56.495,67.795s23.113,67.792,56.495,67.792C3963.707,736.836,3995.034,714.235,3995.034,669.044Z" fill="#fff"/>
        <path id="Trazado_21" data-name="Trazado 21" d="M4328.859,540.647V797.438h-50.328l-7.19-24.655h-7.7C4247.716,790.248,4226.144,800,4198.411,800c-65.221,0-119.662-53.412-119.662-130.96s54.441-130.966,119.662-130.966c26.709,0,49.817,9.245,66.257,27.733V540.647Zm-64.191,128.4c0-42.629-23.119-67.795-56.5-67.795-31.323,0-62.656,22.6-62.656,67.795s31.333,67.792,62.656,67.792C4241.549,736.836,4264.668,711.669,4264.668,669.044Z" fill="#fff"/>
        <path id="Trazado_22" data-name="Trazado 22" d="M4363.278,468.744c0-24.652,20.03-43.655,44.167-43.655a43.182,43.182,0,0,1,43.143,43.655c0,23.111-19.512,43.141-43.143,43.141C4383.308,511.885,4363.278,491.855,4363.278,468.744Zm77.036,328.694h-65.738V540.647h65.738Z" fill="#fff"/>
        <path id="Trazado_23" data-name="Trazado 23" d="M5105.885,592.519c-21.572,0-30.816,10.783-30.816,21.569,0,17.462,23.113,22.6,38.518,25.679,45.715,9.759,91.936,23.628,91.936,78.063,0,52.9-43.656,82.174-96.555,82.174-59.06,0-104.769-35.947-107.852-90.388h63.167c1.542,15.4,11.816,35.435,43.143,35.435,26.191,0,32.358-13.864,32.358-24.649,0-19.006-17.977-24.655-35.441-28.763-30.3-6.678-95.525-19-95.525-77.551,0-50.331,48.28-76.01,98.1-76.01,57.519,0,95.525,34.923,98.609,78.064h-63.174C5140.3,607.412,5132.081,592.519,5105.885,592.519Z" fill="#fff"/>
        <path id="Trazado_24" data-name="Trazado 24" d="M4903.484,540.647V661.338c0,67.278-36.978,79.093-59.579,79.093-44.167,0-46.732-44.167-46.732-76.012V540.647H4649.767l-49.3,77.036H4594.3l-49.816-77.036h-72.412l79.6,124.8-84.744,131.99h73.959l52.9-86.8h7.19l52.382,86.8h73.96l-84.746-131.99,49.045-76.888h35.7v91.269c0,71.9,34.928,120.175,103.232,120.175,42.114,0,64.715-18.489,74.983-31.328h6.679l9.244,28.762h51.358V540.647Z" fill="#fff"/>
      </g>
    </g>
    <g id="Grupo_15" data-name="Grupo 15">
      <path id="Trazado_25" data-name="Trazado 25" d="M3120.026,326.472V719.654c0,154.152,124.964,279.117,279.116,279.117s279.117-124.965,279.117-279.117V326.472Z" fill="#2abbff"/>
      <path id="Trazado_26" data-name="Trazado 26" d="M3399.142,833.72V719.654a114.065,114.065,0,1,0,0-228.131H3285.077V719.654A114.065,114.065,0,0,0,3399.142,833.72" fill="#fff"/>
    </g>
  </g>
</svg>
