<svg xmlns="http://www.w3.org/2000/svg" width="218.111" height="67.751" viewBox="0 0 218.111 67.751">
  <g id="Grupo_66" data-name="Grupo 66" transform="translate(-325.711 -326.472)">
    <g id="Grupo_4" data-name="Grupo 4" transform="translate(395.413 336.41)">
      <g id="Grupo_2" data-name="Grupo 2" transform="translate(141.621 11.645)">
        <g id="Grupo_1" data-name="Grupo 1">
          <path id="Trazado_1" data-name="Trazado 1" d="M2422.684,544.041a3.394,3.394,0,1,1,3.394,3.394A3.395,3.395,0,0,1,2422.684,544.041Zm6.3,0a2.906,2.906,0,1,0-2.906,2.925A2.915,2.915,0,0,0,2428.984,544.041Zm-3.012.459h-.172v1.262h-.851V542.32h1.166c.784,0,1.272.411,1.272,1.08a.97.97,0,0,1-.574.937l.8,1.424h-.937Zm.125-.794c.277,0,.4-.076.4-.287s-.115-.306-.411-.306h-.287v.593Z" transform="translate(-2422.684 -540.647)" fill="#fff"/>
        </g>
      </g>
      <g id="Grupo_3" data-name="Grupo 3" transform="translate(0 0)">
        <path id="Trazado_2" data-name="Trazado 2" d="M1042.578,551.276c0,7.815-5.486,13.2-12.059,13.2a8.635,8.635,0,0,1-6.677-2.795v12.887h-6.469V538.337h5.072l.725,2.484h.777a8.5,8.5,0,0,1,6.573-2.743C1037.092,538.078,1042.578,543.461,1042.578,551.276Zm-6.728,0c0-4.555-3.157-6.832-6.314-6.832-3.364,0-5.693,2.536-5.693,6.832s2.329,6.832,5.693,6.832C1032.693,558.108,1035.85,555.83,1035.85,551.276Z" transform="translate(-1017.373 -526.692)" fill="#fff"/>
        <path id="Trazado_3" data-name="Trazado 3" d="M1309.64,538.337v25.878h-5.072l-.725-2.485h-.776a8.5,8.5,0,0,1-6.573,2.743c-6.572,0-12.059-5.383-12.059-13.2s5.486-13.2,12.059-13.2a8.638,8.638,0,0,1,6.677,2.795v-2.536Zm-6.469,12.939c0-4.3-2.33-6.832-5.694-6.832-3.156,0-6.314,2.277-6.314,6.832s3.158,6.832,6.314,6.832C1300.841,558.108,1303.171,555.572,1303.171,551.276Z" transform="translate(-1257.522 -526.692)" fill="#fff"/>
        <path id="Trazado_4" data-name="Trazado 4" d="M1568.963,429.488a4.407,4.407,0,0,1,4.451-4.4,4.352,4.352,0,0,1,4.348,4.4,4.408,4.408,0,0,1-4.348,4.348A4.465,4.465,0,0,1,1568.963,429.488Zm7.763,33.124H1570.1V436.734h6.625Z" transform="translate(-1513.376 -425.089)" fill="#fff"/>
        <path id="Trazado_5" data-name="Trazado 5" d="M2217.359,543.564c-2.174,0-3.105,1.087-3.105,2.174,0,1.76,2.329,2.277,3.882,2.588,4.607.983,9.265,2.381,9.265,7.867,0,5.331-4.4,8.281-9.731,8.281-5.952,0-10.558-3.623-10.869-9.109h6.366c.155,1.552,1.19,3.571,4.348,3.571,2.639,0,3.261-1.4,3.261-2.484,0-1.915-1.812-2.485-3.571-2.9-3.053-.673-9.627-1.915-9.627-7.815,0-5.072,4.865-7.66,9.885-7.66,5.8,0,9.627,3.519,9.938,7.867h-6.366C2220.827,545.065,2220,543.564,2217.359,543.564Z" transform="translate(-2086.936 -526.692)" fill="#fff"/>
        <path id="Trazado_6" data-name="Trazado 6" d="M1716.612,540.647V552.81c0,6.78-3.726,7.971-6,7.971-4.451,0-4.709-4.451-4.709-7.66V540.647h-14.855l-4.968,7.763h-.621l-5.02-7.763h-7.3l8.022,12.577-8.54,13.3h7.453l5.331-8.747h.725l5.279,8.747h7.453l-8.54-13.3,4.943-7.748h3.6v9.2c0,7.246,3.52,12.111,10.4,12.111,4.244,0,6.522-1.863,7.557-3.157h.673l.931,2.9h5.176V540.647Z" transform="translate(-1606.586 -529.002)" fill="#fff"/>
      </g>
    </g>
    <g id="Grupo_5" data-name="Grupo 5" transform="translate(325.711 326.472)">
      <path id="Trazado_7" data-name="Trazado 7" d="M325.711,326.472V366.1a28.128,28.128,0,1,0,56.256,0V326.472Z" transform="translate(-325.711 -326.472)" fill="#2abbff"/>
      <path id="Trazado_8" data-name="Trazado 8" d="M502.257,526.008v-11.5a11.495,11.495,0,0,0,0-22.99h-11.5v22.99a11.5,11.5,0,0,0,11.5,11.5" transform="translate(-474.129 -474.89)" fill="#fff"/>
    </g>
  </g>
</svg>
