<svg xmlns="http://www.w3.org/2000/svg" xmlns:xlink="http://www.w3.org/1999/xlink" width="1366" height="768" viewBox="0 0 1366 768">
  <defs>
    <clipPath id="clip-Paixus_landing_page_final_user_2">
      <rect width="1366" height="768"/>
    </clipPath>
  </defs>
  <g id="Paixus_landing_page_final_user_2" data-name="Paixus landing page final user – 2" clip-path="url(#clip-Paixus_landing_page_final_user_2)">
    <rect width="1366" height="768" fill="#4848ff"/>
    <g id="Componente_14_1" data-name="Componente 14 – 1" transform="translate(376 78)">
      <g id="Componente_13_1" data-name="Componente 13 – 1">
        <path id="Trazado_41" data-name="Trazado 41" stroke-linecap="round" d="M1459,808.5c0-169.827-137.673-307.5-307.5-307.5S844,638.673,844,808.5" fill="none" stroke="#fff" transform="translate(-844 -501)" stroke-linejoin="round" stroke-width="5" stroke-dasharray="1 20 1 20 1 20" opacity="0.273"/>
        <path id="Trazado_43" data-name="Trazado 43" stroke-linecap="round" d="M615,307.5C615,137.673,477.327,0,307.5,0S0,137.673,0,307.5" fill="none" stroke="#fff" transform="translate(615 612.705) rotate(180)" stroke-linejoin="round" stroke-width="5" stroke-dasharray="1 20 1 20 1 20" opacity="0.273"/>
        <g id="Grupo_43" data-name="Grupo 43" transform="translate(-450 -1523.647)">
          <circle id="Elipse_125" data-name="Elipse 125" cx="44" cy="44" r="44" transform="translate(954 1984)" fill="#00ceff"/>
          <g id="Elipse_126" data-name="Elipse 126" transform="translate(944 1974)" fill="none" stroke="#fff" stroke-width="1" opacity="0.5">
            <circle cx="54" cy="54" r="54" stroke="none"/>
            <circle cx="54" cy="54" r="53.5" fill="none"/>
          </g>
        </g>
        <g id="Grupo_45" data-name="Grupo 45" transform="translate(-450 -1920.647)">
          <circle id="Elipse_125-2" data-name="Elipse 125" cx="44" cy="44" r="44" transform="translate(954 1984)" fill="#00ceff"/>
          <g id="Elipse_126-2" data-name="Elipse 126" transform="translate(944 1974)" fill="none" stroke="#fff" stroke-width="1" opacity="0.5">
            <circle cx="54" cy="54" r="54" stroke="none"/>
            <circle cx="54" cy="54" r="53.5" fill="none"/>
          </g>
        </g>
        <g id="Grupo_44" data-name="Grupo 44" transform="translate(-936 -1537.647)">
          <circle id="Elipse_125-3" data-name="Elipse 125" cx="44" cy="44" r="44" transform="translate(954 1984)" fill="#00ceff"/>
          <g id="Elipse_126-3" data-name="Elipse 126" transform="translate(944 1974)" fill="none" stroke="#fff" stroke-width="1" opacity="0.5">
            <circle cx="54" cy="54" r="54" stroke="none"/>
            <circle cx="54" cy="54" r="53.5" fill="none"/>
          </g>
        </g>
        <g id="Grupo_46" data-name="Grupo 46" transform="translate(50.414 465.751)">
          <path id="Trazado_44" data-name="Trazado 44" d="M4411.532,2057.549a4.774,4.774,0,1,0-4.774-4.775A4.78,4.78,0,0,0,4411.532,2057.549Zm0-8.71a3.936,3.936,0,1,1-3.936,3.936A3.94,3.94,0,0,1,4411.532,2048.838Z" transform="translate(-4400.457 -2048)" fill="#4848ff"/>
          <path id="Trazado_45" data-name="Trazado 45" d="M4308.843,2263.965a2.969,2.969,0,0,0-.293-1.291,84.228,84.228,0,0,0-3.932-7.766c-.14-.334-3.989-3.134-7.027-3.134-2.379,0-5.516,1.767-7,2.811-.133.094-.487.345-3.934,7.937a2,2,0,0,0-.18.833l-.006,6.748a1.939,1.939,0,0,0,1.961,1.945,2.026,2.026,0,0,0,1.357-.49l2.258,2.17v14.309a.419.419,0,1,0,.838,0v-20.313h9.05v20.313a.419.419,0,1,0,.838,0v-14.291l2.637-2.189a2.026,2.026,0,0,0,1.472.595,1.939,1.939,0,0,0,1.961-1.945Zm-16.79,5.087-1.482.212v-5.546a1.186,1.186,0,0,1,.171-.614l1.311-2.163Zm-1.748,1.833a2.628,2.628,0,0,0,.23-.769l1.518-.217v2.666Zm14.089-7.921a2.159,2.159,0,0,1,.36,1.2v4.94l-1.975-.275v-8.3Zm-1.615,9.693v-2.985l1.982.275a2.845,2.845,0,0,0,.193.9Zm4.093-1.343c-.568.019-1.24-.37-1.28-1.461v-5.692a3,3,0,0,0-.5-1.659l-2.739-4.14a.419.419,0,1,0-.7.462l.286.432v7.63h-9.05v-7.328l.335-.552a.419.419,0,0,0-.717-.435l-2.483,4.1a2.02,2.02,0,0,0-.293,1.049v6.014c-.041,1.106-.7,1.478-1.28,1.476a1.1,1.1,0,0,1-1.139-1.107l.006-6.748a1.177,1.177,0,0,1,.1-.487c1.9-4.195,3.375-7.237,3.681-7.618,1.316-.924,4.326-2.638,6.484-2.638,2.022,0,4.746,1.48,6.318,2.738.3.351,1.817,3.357,3.884,7.685a2.148,2.148,0,0,1,.211.931l.005,6.241A1.1,1.1,0,0,1,4306.872,2271.314Z" transform="translate(-4286.477 -2241.099)" fill="#4848ff"/>
          <path id="Trazado_46" data-name="Trazado 46" d="M4490.313,2617.242a.419.419,0,0,0-.419.419v16.7a.419.419,0,0,0,.838,0v-16.7A.419.419,0,0,0,4490.313,2617.242Z" transform="translate(-4479.238 -2587.421)" fill="#4848ff"/>
        </g>
        <g id="Grupo_47" data-name="Grupo 47" transform="translate(529.027 477.227)">
          <path id="Trazado_47" data-name="Trazado 47" d="M5332.131,556.628h-.472V550.54a1.906,1.906,0,0,0-1.9-1.9H5326.4l.751-4.8a.977.977,0,0,0-.807-1.1l-4.836-.794-.239-.443a.867.867,0,0,0-1.173-.353l-13.947,7.49h-7.264a1.906,1.906,0,0,0-1.9,1.9v20.792a1.906,1.906,0,0,0,1.9,1.9h3.074v3.072a.419.419,0,0,0,.838,0v-3.072h26.958a1.906,1.906,0,0,0,1.9-1.9v-6.493h.472a1.839,1.839,0,0,0,1.837-1.837v-4.537A1.839,1.839,0,0,0,5332.131,556.628Zm-5.927-13.066a.14.14,0,0,1,.117.153l-.77,4.922h-.445l-3.1-5.763Zm-5.673-1.666,3.624,6.74h-16.228Zm10.291,29.436a1.067,1.067,0,0,1-1.066,1.065H5302.8v-1.538a.419.419,0,0,0-.838,0V572.4h-3.074a1.066,1.066,0,0,1-1.065-1.065V550.54a1.066,1.066,0,0,1,1.065-1.065h30.871a1.067,1.067,0,0,1,1.066,1.065v6.088h-3.227a1.84,1.84,0,0,0-1.837,1.837V563a1.84,1.84,0,0,0,1.837,1.837h3.227Zm2.309-8.33a1,1,0,0,1-1,1h-4.537a1,1,0,0,1-1-1v-4.537a1,1,0,0,1,1-1h4.537a1,1,0,0,1,1,1Z" transform="translate(-5296.981 -541.043)" fill="#4848ff"/>
          <path id="Trazado_48" data-name="Trazado 48" d="M5376.78,1210.164a5.374,5.374,0,1,0,5.373,5.374A5.381,5.381,0,0,0,5376.78,1210.164Zm0,9.91a4.536,4.536,0,1,1,4.535-4.536A4.541,4.541,0,0,1,5376.78,1220.073Z" transform="translate(-5367.506 -1175.111)" fill="#4848ff"/>
          <path id="Trazado_49" data-name="Trazado 49" d="M5452.285,1254.859a.745.745,0,0,1-.542-.636c0-.163.1-.28.3-.349.008,0,.195-.048.523.18a.419.419,0,1,0,.478-.689,1.988,1.988,0,0,0-.507-.258v-.582a.419.419,0,0,0-.838,0v.587a1.177,1.177,0,0,0-.791,1.111,1.583,1.583,0,0,0,1.1,1.428.669.669,0,0,1,.476.618.48.48,0,0,1-.375.467.627.627,0,0,1-.5-.054.419.419,0,0,0-.458.7,1.331,1.331,0,0,0,.545.2v.452a.419.419,0,1,0,.838,0v-.574a1.292,1.292,0,0,0,.79-1.193A1.51,1.51,0,0,0,5452.285,1254.859Z" transform="translate(-5442.842 -1214.856)" fill="#4848ff"/>
          <path id="Trazado_50" data-name="Trazado 50" d="M5640.417,1353.793a5.374,5.374,0,1,0,5.374,5.374A5.38,5.38,0,0,0,5640.417,1353.793Zm0,9.91a4.536,4.536,0,1,1,4.536-4.536A4.541,4.541,0,0,1,5640.417,1363.7Z" transform="translate(-5617.333 -1311.216)" fill="#4848ff"/>
          <path id="Trazado_51" data-name="Trazado 51" d="M5715.926,1398.484a.744.744,0,0,1-.541-.636c0-.163.1-.281.3-.349.008,0,.195-.048.522.179a.419.419,0,1,0,.478-.689,1.964,1.964,0,0,0-.507-.258v-.582a.419.419,0,1,0-.838,0v.587a1.177,1.177,0,0,0-.79,1.111,1.584,1.584,0,0,0,1.1,1.428.67.67,0,0,1,.476.618.48.48,0,0,1-.376.467.625.625,0,0,1-.5-.054.419.419,0,1,0-.459.7,1.339,1.339,0,0,0,.545.2v.452a.419.419,0,1,0,.838,0v-.574a1.292,1.292,0,0,0,.79-1.193A1.51,1.51,0,0,0,5715.926,1398.484Z" transform="translate(-5692.672 -1350.956)" fill="#4848ff"/>
          <path id="Trazado_52" data-name="Trazado 52" d="M5460.768,923.06h-2.724a.664.664,0,0,1-.663-.664v-.153a1.5,1.5,0,0,0-1.5-1.5h-7.543a1.5,1.5,0,0,0-1.5,1.5v.153a.664.664,0,0,1-.664.664,1.5,1.5,0,0,0-1.5,1.5v.559a1.5,1.5,0,0,0,1.5,1.5h2.375a.664.664,0,0,1,.663.663v.14a1.5,1.5,0,0,0,1.5,1.5h7.683a1.5,1.5,0,0,0,1.5-1.5v-.14a.665.665,0,0,1,.664-.663h.209a1.5,1.5,0,0,0,1.5-1.5v-.559A1.5,1.5,0,0,0,5460.768,923.06Zm.664,2.06a.665.665,0,0,1-.664.664h-.209a1.5,1.5,0,0,0-1.5,1.5v.14a.664.664,0,0,1-.664.664h-7.683a.664.664,0,0,1-.664-.664v-.14a1.5,1.5,0,0,0-1.5-1.5h-2.375a.664.664,0,0,1-.663-.664v-.559a.663.663,0,0,1,.663-.663,1.5,1.5,0,0,0,1.5-1.5v-.153a.665.665,0,0,1,.664-.663h7.543a.665.665,0,0,1,.664.663v.153a1.5,1.5,0,0,0,1.5,1.5h2.724a.665.665,0,0,1,.664.663Z" transform="translate(-5436.932 -900.851)" fill="#4848ff"/>
          <path id="Trazado_53" data-name="Trazado 53" d="M5466.412,1058.023a.419.419,0,0,0-.419.419v2.786a.419.419,0,1,0,.838,0v-2.786A.419.419,0,0,0,5466.412,1058.023Z" transform="translate(-5457.139 -1030.94)" fill="#4848ff"/>
          <path id="Trazado_54" data-name="Trazado 54" d="M5560.986,1171.824a.419.419,0,0,0-.419.419v2.2a.419.419,0,0,0,.838,0v-2.2A.419.419,0,0,0,5560.986,1171.824Z" transform="translate(-5546.758 -1138.78)" fill="#4848ff"/>
          <path id="Trazado_55" data-name="Trazado 55" d="M5812.917,1240.62v-5.377a.419.419,0,1,0-.838,0v5.377a.419.419,0,0,0,.838,0Z" transform="translate(-5785.094 -1198.479)" fill="#4848ff"/>
          <path id="Trazado_56" data-name="Trazado 56" d="M5745.542,1175.9v-3.656a.419.419,0,0,0-.838,0v3.656a.419.419,0,0,0,.838,0Z" transform="translate(-5721.249 -1138.78)" fill="#4848ff"/>
          <path id="Trazado_57" data-name="Trazado 57" d="M5661.019,1253.591v-4.66a.419.419,0,1,0-.838,0v4.66a.419.419,0,1,0,.838,0Z" transform="translate(-5641.154 -1211.45)" fill="#4848ff"/>
        </g>
        <g id="Grupo_48" data-name="Grupo 48" transform="translate(527.894 85.92)">
          <path id="Trazado_58" data-name="Trazado 58" d="M706.891,648.512c-.472-1.654-3.121-2.623-6.188-3.745a40.352,40.352,0,0,1-4.968-2.067,33.992,33.992,0,0,1-7.7-5.7,1.275,1.275,0,0,0-1.737-.058,45.2,45.2,0,0,1-8.126,5.652,44.145,44.145,0,0,1-4.695,2.031c-3.072,1.192-5.726,2.221-6.025,3.927-2.679,15.271,17.629,30.143,18.868,31.034a1.769,1.769,0,0,0,.857.352,1.811,1.811,0,0,0,.867-.359C689.227,678.636,710.558,661.365,706.891,648.512ZM687.5,678.942a.885.885,0,0,1-.323.16h0a.988.988,0,0,1-.341-.175c-.212-.151-21.173-15.328-18.559-30.228.218-1.241,2.785-2.237,5.5-3.291a44.769,44.769,0,0,0,4.785-2.072,46.071,46.071,0,0,0,8.285-5.762.43.43,0,0,1,.593.021,34.881,34.881,0,0,0,7.9,5.845,40.907,40.907,0,0,0,5.074,2.114c2.733,1,5.315,1.944,5.67,3.187C709.623,661.144,687.722,678.766,687.5,678.942Z" transform="translate(-667.208 -636.631)" fill="#4848ff"/>
          <path id="Trazado_59" data-name="Trazado 59" d="M920.434,906.933a.418.418,0,0,0,.585-.095,7.466,7.466,0,1,0-12,.162.419.419,0,0,0,.666-.508,6.557,6.557,0,0,1-1.352-4.01,6.627,6.627,0,1,1,12.009,3.866A.419.419,0,0,0,920.434,906.933Z" transform="translate(-894.904 -881.48)" fill="#4848ff"/>
          <path id="Trazado_60" data-name="Trazado 60" d="M825.621,796.873H823.89a10.309,10.309,0,0,0-1.07-2.636L824.058,793a1.149,1.149,0,0,0,0-1.623l-2.15-2.15a1.149,1.149,0,0,0-1.623,0l-1.209,1.209a10.5,10.5,0,0,0-2.754-1.147v-1.759a1.148,1.148,0,0,0-1.146-1.146h-3.042a1.147,1.147,0,0,0-1.146,1.146v1.788a10.293,10.293,0,0,0-2.542,1.058l-1.249-1.249a1.17,1.17,0,0,0-1.62,0l-2.157,2.153a1.16,1.16,0,0,0,0,1.62l1.236,1.235a10.276,10.276,0,0,0-1.131,2.742h-1.739a1.148,1.148,0,0,0-1.146,1.146v3.041a1.148,1.148,0,0,0,1.146,1.146h1.776a10.382,10.382,0,0,0,1.164,2.712l-1.193,1.193a1.145,1.145,0,0,0,0,1.623l1.344,1.345a.419.419,0,1,0,.593-.593l-1.344-1.345a.306.306,0,0,1,0-.437l1.356-1.358a.512.512,0,0,0,.091-.655,9.538,9.538,0,0,1-1.259-2.928.5.5,0,0,0-.494-.394h-2.034a.308.308,0,0,1-.308-.308v-3.041a.308.308,0,0,1,.308-.308h2a.514.514,0,0,0,.5-.4,9.441,9.441,0,0,1,1.221-2.959.5.5,0,0,0-.071-.632l-1.416-1.416a.316.316,0,0,1,0-.44l2.157-2.153a.308.308,0,0,1,.431,0l1.454,1.453a.532.532,0,0,0,.605.053,9.545,9.545,0,0,1,2.766-1.152.511.511,0,0,0,.4-.494v-2.047a.308.308,0,0,1,.308-.308h3.042a.308.308,0,0,1,.308.308v2.02a.5.5,0,0,0,.4.493,9.663,9.663,0,0,1,2.976,1.241.507.507,0,0,0,.63-.072l1.391-1.391a.31.31,0,0,1,.438,0l2.15,2.15a.307.307,0,0,1,0,.438l-1.419,1.418a.531.531,0,0,0-.074.627,9.559,9.559,0,0,1,1.161,2.861.508.508,0,0,0,.5.4h1.989a.308.308,0,0,1,.308.308v3.041a.308.308,0,0,1-.308.308H823.6a.5.5,0,0,0-.492.386,9.689,9.689,0,0,1-1.118,2.711.53.53,0,0,0,.092.6l1.431,1.427a.311.311,0,0,1,0,.442l-1.516,1.559a.419.419,0,0,0,.6.584l1.512-1.555a1.149,1.149,0,0,0,0-1.623l-1.252-1.247a10.441,10.441,0,0,0,1-2.444h1.768a1.147,1.147,0,0,0,1.146-1.146v-3.041A1.147,1.147,0,0,0,825.621,796.873Z" transform="translate(-793.651 -778.538)" fill="#4848ff"/>
          <path id="Trazado_61" data-name="Trazado 61" d="M910.75,1012.982a1.433,1.433,0,0,0-1.254-.724h0a1.434,1.434,0,0,0-1.254.724l-6.317,10.942a1.447,1.447,0,0,0,1.254,2.172h12.635a1.448,1.448,0,0,0,1.254-2.172Zm5.592,11.971a.6.6,0,0,1-.528.3H903.179a.609.609,0,0,1-.528-.914l6.317-10.942a.6.6,0,0,1,.528-.3h0a.6.6,0,0,1,.528.3l6.317,10.942A.6.6,0,0,1,916.342,1024.952Z" transform="translate(-889.443 -992.58)" fill="#4848ff"/>
          <path id="Trazado_62" data-name="Trazado 62" d="M1042.419,1076.782a.419.419,0,0,0-.419.419v5.611a.419.419,0,0,0,.838,0V1077.2A.419.419,0,0,0,1042.419,1076.782Z" transform="translate(-1022.366 -1053.724)" fill="#4848ff"/>
          <path id="Trazado_63" data-name="Trazado 63" d="M1042.419,1214.282a.419.419,0,0,0-.419.419v.53a.419.419,0,0,0,.838,0v-.53A.419.419,0,0,0,1042.419,1214.282Z" transform="translate(-1022.366 -1184.021)" fill="#4848ff"/>
        </g>
      </g>
      <g id="Grupo_70" data-name="Grupo 70" transform="translate(-368.379 -1539.866)">
        <g id="Grupo_38" data-name="Grupo 38" transform="translate(655.238 1653.079)">
          <g id="Grupo_40" data-name="Grupo 40" transform="translate(0 0)">
            <g id="Grupo_36" data-name="Grupo 36" transform="translate(4.163 344.618)">
              <line id="Línea_1" data-name="Línea 1" x2="40.311" y2="40.311" transform="translate(0)" fill="none" stroke="#fff" stroke-width="17"/>
              <line id="Línea_2" data-name="Línea 2" x1="40.311" y2="40.311" transform="translate(0)" fill="none" stroke="#fff" stroke-width="17"/>
            </g>
            <text id="Desconfianza" transform="translate(37.141 162.787) rotate(-90)" fill="#fff" font-size="49" font-family="BrownStd-Bold, BrownStd" font-weight="700"><tspan x="-160.132" y="0">Desconfianza</tspan></text>
            <text id="_9_" data-name="9%" transform="translate(-3.859 429.787)" fill="#fff" font-size="30" font-family="BrownStd-Bold, BrownStd" font-weight="700"><tspan x="0" y="0">9%</tspan></text>
          </g>
        </g>
        <g id="Grupo_39" data-name="Grupo 39" transform="translate(534.274 1620.822)">
          <g id="Grupo_35" data-name="Grupo 35" transform="translate(3.934 376.875)">
            <line id="Línea_1-2" data-name="Línea 1" x2="40.311" y2="40.311" transform="translate(0)" fill="none" stroke="#fff" stroke-width="17"/>
            <line id="Línea_2-2" data-name="Línea 2" x1="40.311" y2="40.311" transform="translate(0)" fill="none" stroke="#fff" stroke-width="17"/>
          </g>
          <text id="Falta_de_dinero" data-name="Falta de dinero" transform="translate(37.105 179.044) rotate(-90)" fill="#fff" font-size="49" font-family="BrownStd-Bold, BrownStd" font-weight="700"><tspan x="-176.179" y="0">Falta de dinero</tspan></text>
          <text id="_45_" data-name="45%" transform="translate(-7.895 462.044)" fill="#fff" font-size="30" font-family="BrownStd-Bold, BrownStd" font-weight="700"><tspan x="0" y="0">45%</tspan></text>
        </g>
        <g id="Grupo_41" data-name="Grupo 41" transform="translate(776.202 1599.318)">
          <g id="Grupo_37" data-name="Grupo 37" transform="translate(4.393 398.38)">
            <line id="Línea_1-3" data-name="Línea 1" x2="40.311" y2="40.311" transform="translate(0)" fill="none" stroke="#fff" stroke-width="17"/>
            <line id="Línea_2-3" data-name="Línea 2" x1="40.311" y2="40.311" transform="translate(0)" fill="none" stroke="#fff" stroke-width="17"/>
          </g>
          <text id="_29_" data-name="29%" transform="translate(-11.823 483.549)" fill="#fff" font-size="30" font-family="BrownStd-Bold, BrownStd" font-weight="700"><tspan x="0" y="0">29%</tspan></text>
          <text id="Desinformación" transform="translate(37.177 189.549) rotate(-90)" fill="#fff" font-size="49" font-family="BrownStd-Bold, BrownStd" font-weight="700"><tspan x="-187.352" y="0">Desinformación</tspan></text>
        </g>
      </g>
    </g>
  </g>
</svg>
