<svg xmlns="http://www.w3.org/2000/svg" width="181.691" height="360" viewBox="0 0 181.691 360">
  <path id="Intersección_1" data-name="Intersección 1" d="M-1805.652,358.07a3.982,3.982,0,0,1,2.328,1.14,3.982,3.982,0,0,1,1.04,1.807l-3.368,2.332Zm16.47-13a4,4,0,0,1,0-5.656,4,4,0,0,1,5.656,0,4,4,0,0,1,0,5.656,3.988,3.988,0,0,1-2.829,1.172A3.988,3.988,0,0,1-1789.182,345.068Zm19.8-19.8a4,4,0,0,1,0-5.656,4,4,0,0,1,5.656,0,4,4,0,0,1,0,5.656,3.988,3.988,0,0,1-2.829,1.172A3.988,3.988,0,0,1-1769.383,325.269Zm-36.269-6.8a3.982,3.982,0,0,1,2.328,1.14,4,4,0,0,1,0,5.656,3.984,3.984,0,0,1-2.328,1.14Zm56.068-13a4,4,0,0,1,0-5.656,4,4,0,0,1,5.656,0,4,4,0,0,1,0,5.657,3.987,3.987,0,0,1-2.828,1.171A3.989,3.989,0,0,1-1749.584,305.47Zm-39.6,0a4,4,0,0,1,0-5.656,4,4,0,0,1,5.656,0,4,4,0,0,1,0,5.656,3.986,3.986,0,0,1-2.828,1.172A3.988,3.988,0,0,1-1789.182,305.47Zm59.4-19.8a4,4,0,0,1,0-5.656,4,4,0,0,1,5.657,0,4,4,0,0,1,0,5.657,3.989,3.989,0,0,1-2.828,1.171A3.988,3.988,0,0,1-1729.785,285.671Zm-39.6,0a4,4,0,0,1,0-5.656,4,4,0,0,1,5.656,0,4,4,0,0,1,0,5.656,3.987,3.987,0,0,1-2.828,1.172A3.987,3.987,0,0,1-1769.382,285.671Zm-36.27-6.8a3.983,3.983,0,0,1,2.328,1.141,4,4,0,0,1,0,5.656,3.984,3.984,0,0,1-2.328,1.141Zm95.667-13a4,4,0,0,1,0-5.656,4,4,0,0,1,5.656,0,4,4,0,0,1,0,5.657,3.987,3.987,0,0,1-2.828,1.171A3.987,3.987,0,0,1-1709.986,265.872Zm-79.2,0a4,4,0,0,1,0-5.656,4,4,0,0,1,5.656,0,4,4,0,0,1,0,5.656,3.988,3.988,0,0,1-2.829,1.172A3.986,3.986,0,0,1-1789.181,265.872Zm39.6,0a4,4,0,0,1,0-5.656,4,4,0,0,1,5.657,0,4,4,0,0,1,0,5.656,3.988,3.988,0,0,1-2.828,1.171A3.987,3.987,0,0,1-1749.584,265.872Zm59.4-19.8a4,4,0,0,1,0-5.656,4,4,0,0,1,5.656,0,4,4,0,0,1,0,5.657,3.985,3.985,0,0,1-2.827,1.171A3.989,3.989,0,0,1-1690.187,246.073Zm-39.6,0a4,4,0,0,1,0-5.656,4,4,0,0,1,5.657,0,4,4,0,0,1,0,5.656,3.985,3.985,0,0,1-2.828,1.172A3.988,3.988,0,0,1-1729.785,246.073Zm-39.6,0a4,4,0,0,1,0-5.656,4,4,0,0,1,5.657,0,4,4,0,0,1,0,5.656,3.985,3.985,0,0,1-2.828,1.172A3.986,3.986,0,0,1-1769.382,246.073Zm-36.27-6.8a3.984,3.984,0,0,1,2.328,1.141,4,4,0,0,1,0,5.656,3.982,3.982,0,0,1-2.328,1.141Zm135.265-13a4,4,0,0,1,0-5.656,4,4,0,0,1,5.656,0,4,4,0,0,1,0,5.657,3.985,3.985,0,0,1-2.828,1.172A3.988,3.988,0,0,1-1670.387,226.274Zm-39.6,0a4,4,0,0,1,0-5.656,4,4,0,0,1,5.656,0,4,4,0,0,1,0,5.657,3.99,3.99,0,0,1-2.829,1.171A3.986,3.986,0,0,1-1709.986,226.274Zm-39.6,0a4,4,0,0,1,0-5.657,4,4,0,0,1,5.657,0,4,4,0,0,1,0,5.657,3.986,3.986,0,0,1-2.828,1.171A3.989,3.989,0,0,1-1749.584,226.274Zm-39.6,0a4,4,0,0,1,0-5.657,4,4,0,0,1,5.657,0,4,4,0,0,1,0,5.657,3.989,3.989,0,0,1-2.829,1.171A3.987,3.987,0,0,1-1789.181,226.274Zm138.592-19.8a4,4,0,0,1,0-5.657,4,4,0,0,1,5.656,0,4,4,0,0,1,0,5.657,3.989,3.989,0,0,1-2.829,1.172A3.989,3.989,0,0,1-1650.589,206.475Zm-39.6,0a4,4,0,0,1,0-5.657,4,4,0,0,1,5.656,0,4,4,0,0,1,0,5.657,3.987,3.987,0,0,1-2.828,1.171A3.986,3.986,0,0,1-1690.187,206.475Zm-39.6,0a4,4,0,0,1,0-5.657,4,4,0,0,1,5.657,0,4,4,0,0,1,0,5.657,3.987,3.987,0,0,1-2.828,1.171A3.987,3.987,0,0,1-1729.785,206.475Zm-39.6,0a4,4,0,0,1,0-5.657,4,4,0,0,1,5.657,0,4,4,0,0,1,0,5.657,3.987,3.987,0,0,1-2.828,1.171A3.987,3.987,0,0,1-1769.382,206.475Zm-36.27-6.8a3.984,3.984,0,0,1,2.329,1.141,4,4,0,0,1,0,5.657,3.984,3.984,0,0,1-2.328,1.14Zm174.862-13a4,4,0,0,1,0-5.657,4,4,0,0,1,5.656,0,4,4,0,0,1,0,5.657,3.988,3.988,0,0,1-2.829,1.172A3.988,3.988,0,0,1-1630.79,186.676Zm-39.6,0a4,4,0,0,1,0-5.657,4,4,0,0,1,5.656,0,4,4,0,0,1,0,5.656,3.989,3.989,0,0,1-2.829,1.172A3.988,3.988,0,0,1-1670.388,186.676Zm-39.6,0a4,4,0,0,1,0-5.657,4,4,0,0,1,5.657,0,4,4,0,0,1,0,5.657,3.989,3.989,0,0,1-2.829,1.171A3.987,3.987,0,0,1-1709.986,186.676Zm-39.6,0a4,4,0,0,1,0-5.657,4,4,0,0,1,5.657,0,4,4,0,0,1,0,5.657,3.987,3.987,0,0,1-2.828,1.171A3.989,3.989,0,0,1-1749.584,186.676Zm-39.6,0a4,4,0,0,1,0-5.657,4,4,0,0,1,5.657,0,4,4,0,0,1,0,5.657,3.987,3.987,0,0,1-2.828,1.171A3.987,3.987,0,0,1-1789.181,186.676Zm138.592-19.8a4,4,0,0,1,0-5.657,4,4,0,0,1,5.656,0,4,4,0,0,1,0,5.657,3.988,3.988,0,0,1-2.829,1.172A3.988,3.988,0,0,1-1650.589,166.877Zm-39.6,0a4,4,0,0,1,0-5.657,4,4,0,0,1,5.656,0,4,4,0,0,1,0,5.657,3.988,3.988,0,0,1-2.829,1.172A3.985,3.985,0,0,1-1690.187,166.877Zm-39.6,0a4,4,0,0,1,0-5.657,4,4,0,0,1,5.657,0,4,4,0,0,1,0,5.657,3.986,3.986,0,0,1-2.828,1.172A3.986,3.986,0,0,1-1729.785,166.877Zm-39.6,0a4,4,0,0,1,0-5.657,4,4,0,0,1,5.657,0,4,4,0,0,1,0,5.657,3.985,3.985,0,0,1-2.828,1.172A3.986,3.986,0,0,1-1769.382,166.877Zm-36.27-6.8a3.984,3.984,0,0,1,2.328,1.14,4,4,0,0,1,0,5.657,3.983,3.983,0,0,1-2.328,1.14Zm56.068-13a4,4,0,0,1,0-5.657,4,4,0,0,1,5.657,0,4,4,0,0,1,0,5.656,3.986,3.986,0,0,1-2.828,1.172A3.988,3.988,0,0,1-1749.584,147.079Zm79.2,0a4,4,0,0,1,0-5.657,4,4,0,0,1,5.656,0,4,4,0,0,1,0,5.656,3.988,3.988,0,0,1-2.829,1.172A3.988,3.988,0,0,1-1670.388,147.078Zm-39.6,0a4,4,0,0,1,0-5.657,4,4,0,0,1,5.656,0,4,4,0,0,1,0,5.656,3.988,3.988,0,0,1-2.829,1.172A3.985,3.985,0,0,1-1709.986,147.078Zm-79.2,0a4,4,0,0,1,0-5.656,4,4,0,0,1,5.657,0,4,4,0,0,1,0,5.656,3.986,3.986,0,0,1-2.828,1.172A3.985,3.985,0,0,1-1789.181,147.078Zm19.8-19.8a4,4,0,0,1,0-5.657,4,4,0,0,1,5.657,0,4,4,0,0,1,0,5.657,3.987,3.987,0,0,1-2.828,1.171A3.987,3.987,0,0,1-1769.382,127.28Zm79.2,0a4,4,0,0,1,0-5.658,4,4,0,0,1,5.656,0,4,4,0,0,1,0,5.656,3.988,3.988,0,0,1-2.829,1.172A3.986,3.986,0,0,1-1690.187,127.28Zm-39.6,0a4,4,0,0,1,0-5.658,4,4,0,0,1,5.657,0,4,4,0,0,1,0,5.656,3.989,3.989,0,0,1-2.829,1.172A3.987,3.987,0,0,1-1729.785,127.28Zm-75.867-6.8a3.983,3.983,0,0,1,2.328,1.14,4,4,0,0,1,0,5.658,3.984,3.984,0,0,1-2.328,1.14Zm95.667-13a4,4,0,0,1,0-5.657,4,4,0,0,1,5.656,0,4,4,0,0,1,0,5.657,3.989,3.989,0,0,1-2.829,1.172A3.986,3.986,0,0,1-1709.986,107.481Zm-39.6,0a4,4,0,0,1,0-5.657,4,4,0,0,1,5.657,0,4,4,0,0,1,0,5.657,3.989,3.989,0,0,1-2.829,1.172A3.988,3.988,0,0,1-1749.584,107.481Zm-39.6,0a4,4,0,0,1,0-5.657,4,4,0,0,1,5.656,0,4,4,0,0,1,0,5.657,3.989,3.989,0,0,1-2.828,1.171A3.988,3.988,0,0,1-1789.182,107.48Zm59.4-19.8a4,4,0,0,1,0-5.657,4,4,0,0,1,5.657,0,4,4,0,0,1,0,5.656,3.989,3.989,0,0,1-2.829,1.172A3.987,3.987,0,0,1-1729.785,87.682Zm-39.6,0a4,4,0,0,1,0-5.657,4,4,0,0,1,5.656,0,4,4,0,0,1,0,5.657,3.988,3.988,0,0,1-2.829,1.172A3.988,3.988,0,0,1-1769.383,87.681Zm-36.269-6.8a3.983,3.983,0,0,1,2.328,1.14,4,4,0,0,1,0,5.657,3.984,3.984,0,0,1-2.328,1.14Zm56.068-13a4,4,0,0,1,0-5.657,4,4,0,0,1,5.656,0,4,4,0,0,1,0,5.657,3.988,3.988,0,0,1-2.829,1.172A3.988,3.988,0,0,1-1749.584,67.882Zm-39.6,0a4,4,0,0,1,0-5.657,4,4,0,0,1,5.656,0,4,4,0,0,1,0,5.657,3.988,3.988,0,0,1-2.829,1.172A3.988,3.988,0,0,1-1789.182,67.882Zm19.8-19.8a4,4,0,0,1,0-5.657,4,4,0,0,1,5.656,0,4,4,0,0,1,0,5.657,3.988,3.988,0,0,1-2.829,1.172A3.988,3.988,0,0,1-1769.383,48.083Zm-36.269-6.8a3.984,3.984,0,0,1,2.328,1.14,4,4,0,0,1,0,5.657,3.984,3.984,0,0,1-2.328,1.14Zm16.47-13a4,4,0,0,1,0-5.656,4,4,0,0,1,5.656,0,4,4,0,0,1,0,5.656,3.988,3.988,0,0,1-2.829,1.172A3.988,3.988,0,0,1-1789.182,28.284Zm-16.47-24.936,3.5,2.422a3.985,3.985,0,0,1-1.17,2.715,3.983,3.983,0,0,1-2.328,1.14Z" transform="translate(1805.652 -3.348)" fill="#00ceff"/>
</svg>
