<svg xmlns="http://www.w3.org/2000/svg" width="23.467" height="16.5" viewBox="0 0 23.467 16.5">
  <path id="Icon_awesome-youtube" data-name="Icon awesome-youtube" d="M24.026,7.082a2.949,2.949,0,0,0-2.075-2.088C20.122,4.5,12.783,4.5,12.783,4.5s-7.338,0-9.168.494A2.949,2.949,0,0,0,1.54,7.082a30.932,30.932,0,0,0-.49,5.685,30.932,30.932,0,0,0,.49,5.685,2.9,2.9,0,0,0,2.075,2.055C5.445,21,12.783,21,12.783,21s7.338,0,9.168-.494a2.9,2.9,0,0,0,2.075-2.055,30.932,30.932,0,0,0,.49-5.685,30.932,30.932,0,0,0-.49-5.685ZM10.383,16.256V9.277l6.133,3.489-6.133,3.489Z" transform="translate(-1.05 -4.5)" fill="#fff"/>
</svg>
